inDegrees=yes
name=ik_S56_A01_T01
DataType=double
version=3
OpenSimVersion=4.3-2021-08-27-4bc7ad9
endheader
time	pelvis_tilt	pelvis_list	pelvis_rotation	pelvis_tx	pelvis_ty	pelvis_tz	hip_flexion_r	hip_adduction_r	hip_rotation_r	knee_angle_r	knee_angle_r_beta	ankle_angle_r	subtalar_angle_r	mtp_angle_r	hip_flexion_l	hip_adduction_l	hip_rotation_l	knee_angle_l	knee_angle_l_beta	ankle_angle_l	subtalar_angle_l	mtp_angle_l	lumbar_extension	lumbar_bending	lumbar_rotation	arm_flex_r	arm_add_r	arm_rot_r	elbow_flex_r	pro_sup_r	wrist_flex_r	wrist_dev_r	arm_flex_l	arm_add_l	arm_rot_l	elbow_flex_l	pro_sup_l	wrist_flex_l	wrist_dev_l
18.0599999999997	-4.759621962265636	-4.960007040719353	71.25098263595446	0	0.9399999999999999	0	1.433765559473	1.892568713060614	-4.243419310056537	-1.810671873118284	-0.03160218585916707	0	0	0	13.89393897909021	0.6532304760475958	-3.924600845398497	9.863229748832225	0.1721458339977757	0	0	0	0	0	0	41.41037832013188	-41.41037832013187	4.937262117119658	84.11278172302687	85.0627381547137	0	0	41.41037832013188	-41.41037832013187	4.937262117119658	84.11278172302687	85.06273815470165	0	0
18.0799999999997	-4.651909485281028	-4.982191051957763	73.37218962691585	0	0.9399999999999999	0	1.068701027326908	2.017016585380736	-4.914409232675914	-2.300389569821308	-0.04014937207191781	0	0	0	13.93517548671033	0.5918632848038954	-5.432250928625153	9.449458701930242	0.1649241668799122	0	0	0	0	0	0	41.41757021408523	-41.41757021408522	4.937481793044955	84.11588846422234	85.06251847879749	0	0	41.41757021408523	-41.41757021408522	4.937481793044955	84.11588846422234	85.06251847878551	0	0
18.0999999999997	-4.49149538375034	-4.957791798588672	75.37433174143302	0	0.9399999999999999	0	0.6191837293050615	2.142732480902977	-5.448228224705585	-3.169483663680996	-0.05531792551940599	0	0	0	13.62145002371909	0.8429962066705116	-4.343324343967202	8.787383523346792	0.1533687751179015	0	0	0	0	0	0	41.41868566759111	-41.41868566759111	4.937521012788585	84.11644314535953	85.06247925905549	0	0	41.41868566759111	-41.41868566759111	4.937521012788585	84.11644314535953	85.06247925904353	0	0
18.1199999999997	-4.312105698943964	-4.851805176275281	77.15972783237844	0	0.9399999999999999	0	0.1327138792807243	2.247394830453775	-5.498745373808996	-3.380664371935555	-0.05900372419514161	0	0	0	13.61712631970502	0.7804955558286375	-5.323879495923832	9.139812736234219	0.1595198252629992	0	0	0	0	0	0	41.42541429520316	-41.42541429520315	4.937724070995182	84.11931486248749	85.06227620085731	0	0	41.42541429520316	-41.42541429520315	4.937724070995182	84.11931486248749	85.06227620084543	0	0
18.1399999999997	-4.109721865385175	-4.67023779857759	78.76724759083139	0	0.9399999999999999	0	-0.462364809805577	2.381742531927879	-5.554429864889303	-4.151613995482355	-0.07245933349304408	0	0	0	13.19664914657166	0.9625975376580521	-4.508244882084313	8.747346049269964	0.152669989371079	0	0	0	0	0	0	41.4262782841932	-41.42627828419318	4.937754392121265	84.11974369092937	85.06224587973247	0	0	41.4262782841932	-41.42627828419318	4.937754392121265	84.11974369092937	85.06224587972059	0	0
18.1599999999997	-3.913988143106875	-4.436616435885046	80.22018065241055	0	0.9399999999999999	0	-1.100376924452771	2.4275883053996	-5.672405054967516	-4.877892517041297	-0.08513528498076424	0	0	0	13.46546196460966	0.6026155417921191	-6.314444633381346	10.0548993728083	0.1754911000122175	0	0	0	0	0	0	41.43356655292141	-41.4335665529214	4.937977685577642	84.1229015945314	85.06202258628534	0	0	41.43356655292141	-41.4335665529214	4.937977685577642	84.1229015945314	85.06202258627353	0	0
18.1799999999997	-3.719287989708115	-4.203255854894177	81.59362054548953	0	0.9399999999999999	0	-1.653904587228725	2.492384061314946	-5.969608149412683	-5.018360089715285	-0.08758690661620976	0	0	0	13.07261440213853	0.7646688117686012	-5.461405057366655	10.13028987774884	0.176806912548171	0	0	0	0	0	0	41.433857400717	-41.43385740071698	4.937987837005145	84.12304516482679	85.06201243485825	0	0	41.433857400717	-41.43385740071698	4.937987837005145	84.12304516482679	85.06201243484642	0	0
18.1999999999997	-3.574563742832011	-4.001754038387416	82.85585223876173	0	0.9399999999999999	0	-2.157803234316579	2.554539080840587	-6.185001999589399	-5.168790793698837	-0.09021241769681568	0	0	0	12.73595548075583	0.9466925647792944	-4.571852586578247	10.29306102050147	0.1796478049164383	0	0	0	0	0	0	41.43410998920111	-41.4341099892011	4.937996643737498	84.12316971724186	85.06200362812622	0	0	41.43410998920111	-41.4341099892011	4.937996643737498	84.12316971724186	85.06200362811441	0	0
18.2199999999997	-3.429790877177742	-3.82652226646063	83.97518092842643	0	0.9399999999999999	0	-2.627182126926265	2.588850251262732	-6.250534371329913	-5.17840529413466	-0.09038022238535523	0	0	0	12.50087796290674	1.075807983852787	-3.605175983972909	10.45270922266581	0.1824341916890954	0	0	0	0	0	0	41.43438781144416	-41.43438781144415	4.938006333347913	84.12330675608972	85.0619939385162	0	0	41.43438781144416	-41.43438781144415	4.938006333347913	84.12330675608972	85.06199393850439	0	0
18.2399999999997	-3.200950826225072	-3.608675612395734	85.50694654935829	0	0.9399999999999999	0	-3.130180209741342	2.705404650248618	-6.882712995083931	-5.341762333908294	-0.09323134058571647	0	0	0	12.20463331108126	1.252228128315505	-2.313220269644543	11.08496375913308	0.1934691150611199	0	0	0	0	0	0	41.43541376259207	-41.43541376259206	4.938042251791244	84.12381474621664	85.06195802007456	0	0	41.43541376259207	-41.43541376259206	4.938042251791244	84.12381474621664	85.06195802006275	0	0
